{
	"asset":{
		"generator":"Khronos glTF Blender I/O v3.6.27",
		"version":"2.0"
	},
	"scene":0,
	"scenes":[
		{
			"name":"Scene",
			"nodes":[
				4
			]
		}
	],
	"nodes":[
		{
			"mesh":0,
			"name":"Cylinder_Holder_0"
		},
		{
			"children":[
				0
			],
			"name":"Cylinder",
			"rotation":[
				-0.6360148191452026,
				0.30900683999061584,
				0.30900683999061584,
				0.6360146999359131
			],
			"scale":[
				44.5051383972168,
				44.50514602661133,
				44.50514602661133
			]
		},
		{
			"children":[
				1
			],
			"name":"RootNode"
		},
		{
			"children":[
				2
			],
			"name":"675c75cc2ff94ab3899a217cca431511.fbx",
			"rotation":[
				0.70710688829422,
				0,
				0,
				0.7071066498756409
			],
			"scale":[
				0.009999999776482582,
				0.010000000707805157,
				0.010000000707805157
			]
		},
		{
			"children":[
				3
			],
			"name":"Sketchfab_model",
			"rotation":[
				-0.70710688829422,
				0,
				0,
				0.7071066498756409
			]
		}
	],
	"materials":[
		{
			"doubleSided":true,
			"name":"Holder",
			"pbrMetallicRoughness":{
				"baseColorTexture":{
					"index":0
				},
				"metallicFactor":0,
				"roughnessFactor":0.8211145401000977
			}
		}
	],
	"meshes":[
		{
			"name":"Cylinder_Holder_0",
			"primitives":[
				{
					"attributes":{
						"POSITION":0,
						"NORMAL":1,
						"TEXCOORD_0":2
					},
					"indices":3,
					"material":0
				}
			]
		}
	],
	"textures":[
		{
			"sampler":0,
			"source":0
		}
	],
	"images":[
		{
			"mimeType":"image/png",
			"name":"Holder_baseColor",
			"uri":"Holder_baseColor.png"
		}
	],
	"accessors":[
		{
			"bufferView":0,
			"componentType":5126,
			"count":6953,
			"max":[
				0.21485379338264465,
				0.3144494295120239,
				0.723750114440918
			],
			"min":[
				-0.21485379338264465,
				-0.21485380828380585,
				-0.013591072522103786
			],
			"type":"VEC3"
		},
		{
			"bufferView":1,
			"componentType":5126,
			"count":6953,
			"type":"VEC3"
		},
		{
			"bufferView":2,
			"componentType":5126,
			"count":6953,
			"type":"VEC2"
		},
		{
			"bufferView":3,
			"componentType":5123,
			"count":37440,
			"type":"SCALAR"
		}
	],
	"bufferViews":[
		{
			"buffer":0,
			"byteLength":83436,
			"byteOffset":0,
			"target":34962
		},
		{
			"buffer":0,
			"byteLength":83436,
			"byteOffset":83436,
			"target":34962
		},
		{
			"buffer":0,
			"byteLength":55624,
			"byteOffset":166872,
			"target":34962
		},
		{
			"buffer":0,
			"byteLength":74880,
			"byteOffset":222496,
			"target":34963
		}
	],
	"samplers":[
		{
			"magFilter":9729,
			"minFilter":9987
		}
	],
	"buffers":[
		{
			"byteLength":297376,
			"uri":"GlobeStand.bin"
		}
	]
}
